<?xml version="1.0" standalone="no"?>
<!DOCTYPE svg PUBLIC "-//W3C//DTD SVG 20010904//EN"
 "http://www.w3.org/TR/2001/REC-SVG-20010904/DTD/svg10.dtd">
<svg version="1.0" xmlns="http://www.w3.org/2000/svg"
 width="450.000000pt" height="450.000000pt" viewBox="0 0 450.000000 450.000000"
 preserveAspectRatio="xMidYMid meet">
<metadata>
Created by potrace 1.11, written by Peter Selinger 2001-2013
</metadata>
<g transform="translate(0.000000,450.000000) scale(0.100000,-0.100000)"
fill="#000000" stroke="none">
<path d="M2156 3765 c-207 -29 -416 -90 -606 -176 -94 -42 -204 -101 -230
-124 -8 -7 -69 -40 -135 -73 -256 -130 -516 -294 -618 -391 -56 -52 -87 -119
-87 -185 0 -120 182 -553 313 -746 53 -77 147 -199 186 -240 28 -30 46 -40 69
-40 17 0 34 5 37 11 12 19 55 30 75 19 11 -6 59 -63 107 -128 48 -64 144 -174
213 -243 117 -118 133 -130 230 -177 67 -33 133 -57 184 -67 43 -9 87 -20 98
-26 48 -26 72 -161 51 -283 -17 -100 -7 -160 42 -232 26 -40 48 -59 92 -80 51
-26 69 -29 153 -29 84 0 102 3 153 29 67 32 125 102 176 210 56 119 66 173 66
369 l0 179 31 26 c18 15 51 41 74 57 109 77 299 317 384 485 31 59 62 113 71
120 10 8 30 11 60 7 25 -4 55 -3 68 2 22 9 151 165 227 276 18 26 96 170 173
319 77 149 154 297 170 329 17 31 32 79 35 106 l4 49 -79 88 c-44 49 -104 108
-134 131 -75 58 -275 152 -449 212 -80 27 -181 67 -225 89 -96 47 -212 86
-337 114 -124 26 -494 34 -642 13z m604 -118 c52 -14 121 -35 152 -46 l57 -22
5 -62 c38 -398 53 -487 105 -623 17 -43 35 -115 41 -159 6 -44 25 -136 42
-205 35 -143 35 -230 -2 -355 -51 -177 -92 -253 -246 -452 -99 -127 -167 -188
-285 -252 -91 -50 -134 -53 -172 -13 -38 39 -69 118 -71 176 l-1 51 76 40 c42
22 88 48 103 58 34 23 76 110 76 157 0 52 -38 110 -94 145 -48 29 -54 30 -160
29 -82 0 -133 -6 -194 -22 -173 -46 -249 -98 -272 -183 -10 -36 -8 -47 12 -87
27 -55 93 -104 171 -127 102 -30 114 -53 78 -156 -66 -192 -137 -242 -294
-205 -120 28 -179 66 -318 205 -150 149 -246 275 -255 332 -4 22 -17 54 -30
72 -75 102 -72 142 22 277 58 83 66 91 60 60 -36 -214 -33 -417 7 -457 26 -26
58 -4 207 142 120 118 162 153 245 201 134 77 161 99 193 153 35 60 37 161 5
233 -62 138 -228 225 -358 188 -28 -8 -65 -30 -95 -57 l-48 -43 19 49 c88 232
131 568 95 739 l-13 63 31 16 c76 39 325 125 404 138 128 22 308 34 467 30
111 -2 160 -8 235 -28z m-2015 -813 c33 -13 55 -86 39 -128 -9 -23 -50 -19
-68 6 -22 31 -30 82 -17 107 12 22 20 25 46 15z m165 -103 c5 -11 10 -36 10
-55 0 -30 -4 -36 -21 -36 -24 0 -53 61 -44 91 8 25 41 25 55 0z m-80 -170 c15
-29 12 -78 -5 -85 -32 -12 -74 72 -48 97 13 14 43 7 53 -12z m1461 -1233 c15
-27 6 -280 -12 -361 -15 -64 -9 -82 33 -106 34 -20 73 -8 86 26 6 16 18 97 27
182 17 161 25 190 53 192 88 6 102 -12 102 -131 0 -120 -14 -197 -50 -277 -39
-85 -77 -133 -125 -154 -51 -24 -99 -23 -152 0 -75 35 -96 89 -80 215 8 66 7
111 -3 187 -15 115 -9 136 56 209 42 46 49 48 65 18z"/>
<path d="M2665 3009 c-18 -29 75 -159 114 -159 21 0 11 56 -18 102 -37 59 -80
84 -96 57z"/>
<path d="M2890 2916 c0 -28 45 -86 66 -86 30 0 1 80 -35 100 -28 14 -31 13
-31 -14z"/>
<path d="M1670 2885 c-16 -19 -25 -91 -12 -99 17 -10 52 44 52 80 0 37 -18 45
-40 19z"/>
<path d="M2620 2851 c0 -38 55 -88 76 -70 8 6 14 19 14 29 0 28 -39 70 -66 70
-20 0 -24 -5 -24 -29z"/>
<path d="M3002 2758 c-17 -17 -15 -53 3 -68 24 -20 65 3 65 34 0 37 -44 58
-68 34z"/>
<path d="M2688 2700 c-66 -11 -111 -42 -133 -89 -17 -38 -17 -42 -1 -66 25
-38 58 -41 109 -12 68 40 107 43 173 13 66 -31 105 -33 127 -8 41 45 11 93
-83 135 -65 29 -127 38 -192 27z"/>
<path d="M3007 2503 c-12 -12 -7 -58 9 -81 17 -25 52 -29 60 -7 18 45 -40 118
-69 88z"/>
<path d="M2856 2354 c-20 -51 8 -127 58 -159 67 -44 82 70 20 145 -28 33 -68
40 -78 14z"/>
</g>
</svg>
